<svg xmlns="http://www.w3.org/2000/svg" version="1.1" width="500px" height="500px" style="shape-rendering:geometricPrecision; text-rendering:geometricPrecision; image-rendering:optimizeQuality; fill-rule:evenodd; clip-rule:evenodd" xmlns:xlink="http://www.w3.org/1999/xlink">
<g></g>
<g><path style="opacity:1" fill="#0e0a08" d="M 224.5,187.5 C 224.334,193.842 224.5,200.175 225,206.5C 228.333,209.167 231.667,209.167 235,206.5C 235.498,203.518 235.665,200.518 235.5,197.5C 233.5,197.5 231.5,197.5 229.5,197.5C 229.244,195.208 229.577,193.041 230.5,191C 235.489,190.501 240.489,190.334 245.5,190.5C 249.876,210.287 242.209,218.453 222.5,215C 217.664,213.181 214.831,209.681 214,204.5C 213.501,198.843 213.334,193.176 213.5,187.5C 212.61,172.589 219.61,166.422 234.5,169C 242.053,170.383 245.72,174.883 245.5,182.5C 242.167,182.5 238.833,182.5 235.5,182.5C 234.593,175.43 231.093,173.763 225,177.5C 224.502,180.817 224.335,184.15 224.5,187.5 Z" data-index="1"></path></g>
<g><path style="opacity:1" fill="#080707" d="M 144.5,187.5 C 149.64,188.488 154.974,188.821 160.5,188.5C 160.5,190.833 160.5,193.167 160.5,195.5C 155.167,195.5 149.833,195.5 144.5,195.5C 144.5,199.833 144.5,204.167 144.5,208.5C 151.167,208.5 157.833,208.5 164.5,208.5C 164.5,210.833 164.5,213.167 164.5,215.5C 156.5,215.5 148.5,215.5 140.5,215.5C 140.167,215.5 139.833,215.5 139.5,215.5C 137.833,215.5 136.167,215.5 134.5,215.5C 134.5,199.833 134.5,184.167 134.5,168.5C 144.172,168.334 153.839,168.5 163.5,169C 164.423,171.041 164.756,173.208 164.5,175.5C 158.158,175.334 151.825,175.5 145.5,176C 144.54,179.73 144.207,183.563 144.5,187.5 Z" data-index="2"></path></g>
<g><path style="opacity:1" fill="#0d0b0a" d="M 183.5,187.5 C 183.334,193.842 183.5,200.175 184,206.5C 187.843,210.729 191.177,210.395 194,205.5C 194.499,199.509 194.666,193.509 194.5,187.5C 194.334,181.491 194.501,175.491 195,169.5C 198.269,168.182 201.435,168.182 204.5,169.5C 204.667,182.171 204.5,194.838 204,207.5C 200.806,213.687 195.64,216.687 188.5,216.5C 180.872,216.358 176.039,212.691 174,205.5C 173.501,199.509 173.334,193.509 173.5,187.5C 173.5,181.167 173.5,174.833 173.5,168.5C 176.777,168.216 179.943,168.549 183,169.5C 183.499,175.491 183.666,181.491 183.5,187.5 Z" data-index="3"></path></g>
<g><path style="opacity:1" fill="#080707" d="M 264.5,187.5 C 269.64,188.488 274.974,188.821 280.5,188.5C 280.5,190.833 280.5,193.167 280.5,195.5C 275.167,195.5 269.833,195.5 264.5,195.5C 264.5,199.833 264.5,204.167 264.5,208.5C 271.167,208.5 277.833,208.5 284.5,208.5C 284.5,210.833 284.5,213.167 284.5,215.5C 274.5,215.5 264.5,215.5 254.5,215.5C 254.5,206.167 254.5,196.833 254.5,187.5C 254.5,181.167 254.5,174.833 254.5,168.5C 264.172,168.334 273.839,168.5 283.5,169C 284.423,171.041 284.756,173.208 284.5,175.5C 278.158,175.334 271.825,175.5 265.5,176C 264.54,179.73 264.207,183.563 264.5,187.5 Z" data-index="4"></path></g>
<g><path style="opacity:1" fill="#080808" d="M 314.5,199.5 C 314.369,200.376 314.702,201.043 315.5,201.5C 316.499,190.854 316.832,180.187 316.5,169.5C 319.287,168.523 322.287,168.19 325.5,168.5C 325.5,184.167 325.5,199.833 325.5,215.5C 320.238,215.805 315.072,215.471 310,214.5C 304.144,171.778 301.977,172.112 303.5,215.5C 300.167,215.5 296.833,215.5 293.5,215.5C 293.5,199.833 293.5,184.167 293.5,168.5C 298.875,168.172 304.208,168.505 309.5,169.5C 311.166,179.497 312.833,189.497 314.5,199.5 Z" data-index="5"></path></g>
<g><path style="opacity:1" fill="#080808" d="M 334.5,168.5 C 344.172,168.334 353.839,168.5 363.5,169C 364.423,171.041 364.756,173.208 364.5,175.5C 358.158,175.334 351.825,175.5 345.5,176C 344.536,180.066 344.203,184.233 344.5,188.5C 349.833,188.5 355.167,188.5 360.5,188.5C 360.5,190.833 360.5,193.167 360.5,195.5C 355.167,195.5 349.833,195.5 344.5,195.5C 344.5,199.833 344.5,204.167 344.5,208.5C 351.167,208.5 357.833,208.5 364.5,208.5C 364.5,210.833 364.5,213.167 364.5,215.5C 354.5,215.5 344.5,215.5 334.5,215.5C 334.5,199.833 334.5,184.167 334.5,168.5 Z" data-index="6"></path></g>
<g><path style="opacity:1" fill="#e09377" d="M 204.5,169.5 C 205.49,175.31 205.823,181.31 205.5,187.5C 208.167,187.5 210.833,187.5 213.5,187.5C 213.334,193.176 213.501,198.843 214,204.5C 214.831,209.681 217.664,213.181 222.5,215C 242.209,218.453 249.876,210.287 245.5,190.5C 240.489,190.334 235.489,190.501 230.5,191C 229.577,193.041 229.244,195.208 229.5,197.5C 231.5,197.5 233.5,197.5 235.5,197.5C 235.665,200.518 235.498,203.518 235,206.5C 231.667,209.167 228.333,209.167 225,206.5C 224.5,200.175 224.334,193.842 224.5,187.5C 234.5,187.5 244.5,187.5 254.5,187.5C 254.5,196.833 254.5,206.167 254.5,215.5C 264.5,215.5 274.5,215.5 284.5,215.5C 284.5,213.167 284.5,210.833 284.5,208.5C 277.833,208.5 271.167,208.5 264.5,208.5C 264.5,204.167 264.5,199.833 264.5,195.5C 269.833,195.5 275.167,195.5 280.5,195.5C 280.5,193.167 280.5,190.833 280.5,188.5C 274.974,188.821 269.64,188.488 264.5,187.5C 272.833,187.5 281.167,187.5 289.5,187.5C 289.5,211.167 289.5,234.833 289.5,258.5C 239.833,258.5 190.167,258.5 140.5,258.5C 140.5,244.167 140.5,229.833 140.5,215.5C 148.5,215.5 156.5,215.5 164.5,215.5C 164.5,213.167 164.5,210.833 164.5,208.5C 157.833,208.5 151.167,208.5 144.5,208.5C 144.5,204.167 144.5,199.833 144.5,195.5C 149.833,195.5 155.167,195.5 160.5,195.5C 160.5,193.167 160.5,190.833 160.5,188.5C 154.974,188.821 149.64,188.488 144.5,187.5C 154.167,187.5 163.833,187.5 173.5,187.5C 173.334,193.509 173.501,199.509 174,205.5C 176.039,212.691 180.872,216.358 188.5,216.5C 195.64,216.687 200.806,213.687 204,207.5C 204.5,194.838 204.667,182.171 204.5,169.5 Z" data-index="7"></path></g>
<g><path style="opacity:1" fill="#de9276" d="M 183.5,187.5 C 187.167,187.5 190.833,187.5 194.5,187.5C 194.666,193.509 194.499,199.509 194,205.5C 191.177,210.395 187.843,210.729 184,206.5C 183.5,200.175 183.334,193.842 183.5,187.5 Z" data-index="8"></path></g>
<g></g>
<g><path style="opacity:1" fill="#32211b" d="M 286.5,237.5 C 287.801,238.884 287.801,240.384 286.5,242C 284.527,242.495 282.527,242.662 280.5,242.5C 280.5,238.833 280.5,235.167 280.5,231.5C 284.838,231.622 285.172,231.955 281.5,232.5C 281.5,233.833 281.5,235.167 281.5,236.5C 284.388,236.78 285.888,235.447 286,232.5C 287.628,233.962 287.795,235.628 286.5,237.5 Z" data-index="10"></path></g>
<g><path style="opacity:1" fill="#3a3a39" d="M 319.5,232.5 C 322.367,230.879 324.7,231.546 326.5,234.5C 325.426,235.08 324.426,234.58 323.5,233C 322.207,232.51 320.873,232.343 319.5,232.5 Z" data-index="11"></path></g>
<g><path style="opacity:1" fill="#34231d" d="M 244.5,231.5 C 246.886,234.829 248.386,238.496 249,242.5C 246.333,238.5 243.667,238.5 241,242.5C 240.833,242.167 240.667,241.833 240.5,241.5C 241.846,238.145 243.18,234.812 244.5,231.5 Z" data-index="12"></path></g>
<g><path style="opacity:1" fill="#33221c" d="M 265.5,239.5 C 266.031,236.763 266.864,234.096 268,231.5C 269.734,235.017 270.401,238.684 270,242.5C 269.178,240.212 268.511,237.878 268,235.5C 267.392,237.066 266.558,238.4 265.5,239.5 Z" data-index="13"></path></g>
<g><path style="opacity:1" fill="#da9074" d="M 244.5,234.5 C 247.459,237.271 247.126,238.271 243.5,237.5C 244.127,236.583 244.461,235.583 244.5,234.5 Z" data-index="14"></path></g>
<g><path style="opacity:1" fill="#472f27" d="M 263.5,238.5 C 262.778,238.082 262.278,237.416 262,236.5C 260.983,238.376 260.149,240.376 259.5,242.5C 259.167,242 258.833,241.5 258.5,241C 259.411,237.855 260.245,234.688 261,231.5C 262.523,233.569 263.357,235.903 263.5,238.5 Z" data-index="15"></path></g>
<g><path style="opacity:1" fill="#414140" d="M 359.5,239.5 C 359.929,236.637 360.929,233.971 362.5,231.5C 364.265,234.965 365.931,238.465 367.5,242C 366.068,242.27 365.068,241.604 364.5,240C 362.866,239.506 361.199,239.34 359.5,239.5 Z" data-index="16"></path></g>
<g><path style="opacity:1" fill="#e8e7e4" d="M 361.5,235.5 C 365.774,237.957 365.441,238.791 360.5,238C 361.252,237.329 361.586,236.496 361.5,235.5 Z" data-index="17"></path></g>
<g><path style="opacity:1" fill="#cd876c" d="M 286.5,237.5 C 286.616,240.91 284.95,242.244 281.5,241.5C 281.5,240.167 281.5,238.833 281.5,237.5C 283.167,237.5 284.833,237.5 286.5,237.5 Z" data-index="18"></path></g>
<g><path style="opacity:1" fill="#5c5c5b" d="M 343.5,234.5 C 341.558,237.234 340.058,240.234 339,243.5C 338.356,239.779 337.523,236.113 336.5,232.5C 336.833,232.167 337.167,231.833 337.5,231.5C 338.333,233.5 339.167,235.5 340,237.5C 340.815,235.377 341.815,233.377 343,231.5C 343.483,232.448 343.649,233.448 343.5,234.5 Z" data-index="19"></path></g>
<g><path style="opacity:1" fill="#2c2c2b" d="M 299.5,237.5 C 299.504,235.158 300.337,233.158 302,231.5C 303.945,235.272 305.112,238.939 305.5,242.5C 304.614,241.675 304.281,240.675 304.5,239.5C 301.453,238.855 299.287,239.855 298,242.5C 297.401,240.465 297.901,238.799 299.5,237.5 Z" data-index="20"></path></g>
<g><path style="opacity:1" fill="#e2e1de" d="M 299.5,237.5 C 300.315,236.571 301.148,235.571 302,234.5C 302.309,235.766 302.809,236.933 303.5,238C 301.934,238.765 300.601,238.598 299.5,237.5 Z" data-index="21"></path></g>
<g><path style="opacity:1" fill="#424141" d="M 343.5,234.5 C 344.558,235.6 345.392,236.934 346,238.5C 346.29,236.048 346.956,233.715 348,231.5C 348.458,235.342 347.791,239.009 346,242.5C 344.864,239.904 344.031,237.237 343.5,234.5 Z" data-index="22"></path></g>
<g><path style="opacity:1" fill="#2c1e19" d="M 263.5,238.5 C 264.167,238.833 264.833,239.167 265.5,239.5C 264.732,243.139 264.066,242.806 263.5,238.5 Z" data-index="23"></path></g>
<g><path style="opacity:1" fill="#353534" d="M 319.5,232.5 C 316.899,235.337 316.899,238.17 319.5,241C 322.003,241.874 324.003,241.207 325.5,239C 320.459,237.992 320.792,237.492 326.5,237.5C 325.826,242.151 323.159,243.651 318.5,242C 316.522,239.503 316.022,236.669 317,233.5C 317.671,232.748 318.504,232.414 319.5,232.5 Z" data-index="24"></path></g>
<g></g>
<g><path style="opacity:1" fill="#ecc0ae" d="M 139.5,215.5 C 139.833,215.5 140.167,215.5 140.5,215.5C 140.5,229.833 140.5,244.167 140.5,258.5C 190.167,258.5 239.833,258.5 289.5,258.5C 239.669,259.499 189.669,259.832 139.5,259.5C 139.5,244.833 139.5,230.167 139.5,215.5 Z" data-index="26"></path></g>
</svg>